<?xml version="1.0" standalone="no"?>
<!DOCTYPE svg PUBLIC "-//W3C//DTD SVG 20010904//EN"
 "http://www.w3.org/TR/2001/REC-SVG-20010904/DTD/svg10.dtd">
<svg version="1.0" xmlns="http://www.w3.org/2000/svg"
 width="600.000000pt" height="600.000000pt" viewBox="0 0 600.000000 600.000000"
 preserveAspectRatio="xMidYMid meet">

<g transform="translate(0.000000,600.000000) scale(0.100000,-0.100000)"
fill="#000000" stroke="none">
<path d="M2765 5434 c-779 -105 -1395 -609 -1619 -1322 -62 -197 -122 -503
-146 -747 -18 -175 -16 -561 4 -725 127 -1043 600 -1703 1414 -1974 251 -83
462 -116 752 -116 491 0 889 116 1195 349 80 61 220 201 280 280 246 324 434
856 501 1414 71 595 -26 1248 -257 1722 -311 640 -894 1047 -1611 1124 -131
15 -390 12 -513 -5z m-302 -733 c147 -39 258 -96 356 -185 18 -17 67 -76 109
-131 115 -154 148 -190 235 -260 86 -69 199 -132 332 -185 117 -46 180 -85
261 -162 82 -78 153 -177 212 -293 48 -97 64 -152 56 -193 -13 -64 -158 -205
-263 -255 -77 -36 -167 -41 -271 -13 -83 23 -165 23 -215 0 -37 -16 -38 -18
-15 -21 263 -38 445 -120 603 -272 149 -144 263 -354 313 -582 20 -89 23 -307
6 -393 -7 -33 -14 -61 -15 -63 -2 -2 -35 18 -73 43 -106 71 -148 87 -234 88
-54 1 -85 -4 -113 -18 -21 -10 -36 -20 -35 -22 2 -1 35 -8 73 -14 138 -21 260
-108 286 -204 6 -23 9 -77 7 -122 -7 -129 -58 -195 -182 -237 -130 -44 -248
-4 -376 127 -30 31 -58 56 -62 56 -14 0 -8 -82 9 -136 9 -30 14 -56 11 -60
-15 -14 -174 -26 -293 -21 -242 10 -421 68 -629 204 -322 211 -508 548 -547
993 -25 286 36 570 164 768 68 105 277 360 350 429 86 80 286 229 410 305 54
33 97 62 95 63 -2 2 -59 20 -128 40 -232 69 -357 143 -525 310 -101 101 -297
336 -318 382 -10 22 -8 28 13 45 23 19 35 20 170 15 97 -4 171 -13 223 -26z
m824 -53 c-3 -7 -5 -2 -5 12 0 14 2 19 5 13 2 -7 2 -19 0 -25z m63 29 c0 -2
-10 -12 -22 -23 l-23 -19 19 23 c18 21 26 27 26 19z m-170 -94 c0 -8 -9 0 -50
45 l-45 47 48 -45 c26 -24 47 -45 47 -47z m247 55 c-3 -7 -5 -2 -5 12 0 14 2
19 5 13 2 -7 2 -19 0 -25z m-1412 -219 c226 -230 467 -386 730 -473 l98 -32
-51 -33 c-28 -18 -84 -47 -124 -64 -67 -29 -82 -32 -183 -32 -106 0 -113 1
-185 36 -42 21 -102 61 -136 92 -108 99 -216 277 -268 445 -29 93 -31 113 -14
130 26 26 54 11 133 -69z m1362 39 c-3 -8 -6 -5 -6 6 -1 11 2 17 5 13 3 -3 4
-12 1 -19z m-262 -28 c10 -11 16 -20 13 -20 -3 0 -13 9 -23 20 -10 11 -16 20
-13 20 3 0 13 -9 23 -20z m502 4 c-3 -3 -12 -4 -19 -1 -8 3 -5 6 6 6 11 1 17
-2 13 -5z m96 -11 c-7 -2 -19 -2 -25 0 -7 3 -2 5 12 5 14 0 19 -2 13 -5z
m-542 -50 c13 -16 12 -17 -3 -4 -17 13 -22 21 -14 21 2 0 10 -8 17 -17z m206
-25 c-3 -8 -6 -5 -6 6 -1 11 2 17 5 13 3 -3 4 -12 1 -19z m10 -60 c-3 -8 -6
-5 -6 6 -1 11 2 17 5 13 3 -3 4 -12 1 -19z m169 -70 l29 -33 -32 29 c-31 28
-38 36 -30 36 2 0 16 -15 33 -32z m-193 -35 c-7 -2 -21 -2 -30 0 -10 3 -4 5
12 5 17 0 24 -2 18 -5z m467 -7 c0 -2 -8 -10 -17 -17 -16 -13 -17 -12 -4 4 13
16 21 21 21 13z m-99 -183 c13 -16 12 -17 -3 -4 -17 13 -22 21 -14 21 2 0 10
-8 17 -17z m74 -63 c21 -22 37 -40 34 -40 -3 0 -23 18 -44 40 -21 22 -37 40
-34 40 3 0 23 -18 44 -40z"/>
<path d="M3542 3538 c-7 -7 -12 -29 -12 -49 0 -46 36 -79 87 -79 39 0 60 31
49 74 -13 54 -90 88 -124 54z"/>
</g>
</svg>
